<svg width="120" height="60" viewBox="0 0 240 81" fill="none" xmlns="http://www.w3.org/2000/svg"><path fill-rule="evenodd" clip-rule="evenodd" d="M220.925 0C231.46 0 240 8.84039 240 19.7471C240 29.9846 232.471 38.4027 222.83 39.3954H201.841V20.0212H201.858L201.857 20.0078C201.853 19.9183 201.849 19.8327 201.849 19.7471C201.849 8.84039 210.389 0 220.925 0ZM202.049 56.3171C202.049 52.2068 205.269 48.8737 209.239 48.8737C213.209 48.8737 216.429 52.2068 216.429 56.3171C216.429 60.4273 213.209 63.7604 209.239 63.7604C205.269 63.7604 202.049 60.4273 202.049 56.3171Z" fill="#EE3446"></path><path fill-rule="evenodd" clip-rule="evenodd" d="M129.926 41.0145C128.177 40.0532 125.791 39.2536 122.827 38.6382C120.805 38.2069 119.256 37.7712 118.232 37.331C117.095 36.8458 116.639 36.3966 116.453 36.1002C116.175 35.6644 116.045 35.1838 116.045 34.6313C116.045 34.1192 116.179 33.369 117.334 32.7805C118.384 32.2415 119.707 31.9675 121.265 31.9675C121.556 31.9675 121.833 31.9809 122.111 31.9944V31.9899L130.234 32.8704C131.987 32.8704 133.41 31.397 133.41 29.5822V28.9533C133.41 27.1385 131.987 25.6651 130.234 25.6651L121.933 24.7846C121.821 24.7846 121.711 24.8004 121.602 24.816L121.602 24.816L121.538 24.8251C121.513 24.8251 121.487 24.824 121.461 24.8229C121.434 24.8217 121.406 24.8206 121.378 24.8206C119.317 24.8206 117.312 25.171 115.411 25.8672C113.467 26.577 111.844 27.673 110.59 29.1285C109.293 30.6378 108.633 32.5514 108.633 34.8154C108.633 37.4029 109.618 39.6175 111.562 41.3918C113.454 43.1213 116.362 44.3746 120.466 45.2191C123.33 45.7536 125.305 46.4319 126.329 47.227C127.236 47.9323 127.665 48.7139 127.635 49.6168C127.605 50.5152 127.14 51.2429 126.216 51.8449C125.183 52.5142 123.612 52.8556 121.547 52.8556V52.914L112.274 52.0335C110.521 52.0335 109.098 54.3874 109.098 56.2022V56.611C109.098 58.4258 110.521 59.0187 112.274 59.0187L119.108 59.8992C119.98 59.998 120.866 60.0699 121.781 60.0699C124.637 60.0699 127.071 59.5937 129.01 58.6593C130.985 57.707 132.508 56.4043 133.536 54.7827C134.573 53.1566 135.098 51.3058 135.098 49.2889C135.098 47.5235 134.686 45.9333 133.866 44.5677C133.063 43.2021 131.736 42.0072 129.926 41.0145ZM179.511 27.0711C182.032 28.5759 184.041 30.6737 185.481 33.3151C186.918 35.9519 187.647 39.029 187.647 42.4699C187.647 45.8614 186.931 48.9205 185.512 51.5529C184.088 54.1987 182.088 56.301 179.567 57.8013C177.055 59.3017 174.121 60.0608 170.854 60.0608C167.586 60.0608 164.657 59.3017 162.14 57.8013C159.619 56.301 157.61 54.1987 156.17 51.5574C154.729 48.9205 154 45.8614 154 42.4654C154 39.029 154.729 35.9519 156.17 33.3151C157.61 30.6737 159.619 28.5714 162.14 27.0711C164.657 25.5707 167.586 24.8116 170.854 24.8116C174.082 24.8116 176.994 25.5707 179.511 27.0711ZM175.735 51.5259C177.137 50.65 178.252 49.4281 179.042 47.8918C179.84 46.3421 180.244 44.5183 180.24 42.4654C180.24 40.4125 179.836 38.5753 179.038 37.0031C178.248 35.4488 177.137 34.218 175.735 33.342C174.334 32.4706 172.689 32.0258 170.849 32.0258C169.01 32.0258 167.365 32.4661 165.963 33.342C164.557 34.218 163.438 35.4488 162.626 37.0075C161.811 38.5753 161.398 40.408 161.398 42.4609C161.398 44.5138 161.811 46.3376 162.626 47.8829C163.434 49.4236 164.557 50.65 165.963 51.5259C167.365 52.3974 169.01 52.8421 170.849 52.8421C172.689 52.8421 174.334 52.4019 175.735 51.5259ZM141.577 26.1502C142.302 25.4225 143.217 25.0542 144.293 25.0542C145.417 25.0542 146.341 25.427 147.04 26.1547C147.747 26.8914 148.103 27.8527 148.103 29.0162V55.8428C148.103 56.9613 147.752 57.9137 147.053 58.6638C146.346 59.4275 145.417 59.8138 144.289 59.8138C143.204 59.8138 142.289 59.432 141.564 58.6773C140.844 57.9271 140.475 56.9748 140.475 55.8473V29.0207C140.475 27.8527 140.848 26.8869 141.577 26.1502ZM25.4064 27.1385C22.8852 25.5977 19.991 24.8161 16.7973 24.8161C13.6426 24.8161 10.7657 25.5977 8.24459 27.1385C5.72782 28.6793 3.71441 30.8085 2.25642 33.4633C0.798429 36.1181 0.0390533 39.1413 0 42.4654V70.9721C0 72.0951 0.368841 73.0474 1.08916 73.8021C1.81381 74.5567 2.73374 74.9386 3.81421 74.9386C4.94242 74.9386 5.87102 74.5522 6.58266 73.7886C7.28128 73.0339 7.63276 72.0861 7.63276 70.9721V60.0069H17.0446C17.1367 60.0124 17.228 60.0191 17.3191 60.0257L17.3193 60.0257C17.5286 60.0411 17.7369 60.0563 17.9515 60.0563C18.3681 60.0563 18.7803 60.0384 19.1882 60.0069H19.3227V59.9935C21.7614 59.7868 24.0004 59.0277 26.0008 57.7205C28.3571 56.1752 30.2403 54.0549 31.6028 51.4181C32.9567 48.7857 33.6466 45.7761 33.6466 42.4654C33.6466 39.1458 32.8959 36.1181 31.4162 33.4588C29.9452 30.804 27.9231 28.6793 25.4064 27.1385ZM24.9941 47.793C24.161 49.3562 23.0284 50.605 21.6182 51.5034C20.2209 52.3974 18.5981 52.8466 16.7973 52.8466C15.0355 52.8466 13.4213 52.3929 12.0024 51.4989C10.5791 50.6005 9.44657 49.3562 8.63513 47.802C7.81935 46.2343 7.40712 44.4419 7.40712 42.4699C7.40712 40.4574 7.81935 38.6427 8.63513 37.0749C9.44657 35.5162 10.5791 34.2719 12.0024 33.3779C13.4213 32.484 15.0355 32.0303 16.7973 32.0303C18.5937 32.0303 20.2166 32.484 21.6182 33.3735C23.0284 34.2719 24.161 35.5207 24.9941 37.0794C25.8273 38.6471 26.2482 40.4619 26.2482 42.4654C26.2482 44.4329 25.8273 46.2253 24.9941 47.793ZM64.5161 27.1385C67.0285 28.6793 69.0506 30.804 70.5303 33.4588C71.9232 35.9564 72.6652 38.7864 72.752 41.877L72.7607 41.8814V55.9102C72.7607 57.0332 72.3962 57.9855 71.6715 58.7402C70.9469 59.4948 70.0313 59.8767 68.9465 59.8767C68.8215 59.8767 68.7016 59.8612 68.5829 59.8459L68.5825 59.8459C68.5541 59.8422 68.5258 59.8385 68.4974 59.8351C68.488 59.834 68.4786 59.8328 68.4691 59.8318H57.4301C56.5796 59.9755 55.7074 60.0564 54.8092 60.0564C51.8368 60.0564 49.1291 59.2658 46.7598 57.716C44.3993 56.1707 42.516 54.0505 41.1579 51.4136C39.7997 48.7858 39.1141 45.7761 39.1141 42.4654C39.1141 39.1458 39.8648 36.1136 41.3444 33.4588C42.8198 30.804 44.8549 28.6793 47.389 27.1385C49.9275 25.5977 52.8131 24.8161 55.9678 24.8161C59.118 24.8161 61.995 25.5977 64.5161 27.1385ZM60.7843 51.499C62.1902 50.6005 63.3141 49.3562 64.1255 47.7975C64.9413 46.2298 65.3579 44.4374 65.3536 42.4609C65.3536 40.4485 64.9413 38.6337 64.1255 37.0659C63.3141 35.5072 62.1902 34.2629 60.7843 33.3645C59.3827 32.475 57.7599 32.0214 55.9634 32.0214C54.2017 32.0214 52.5875 32.4751 51.1685 33.369C49.7409 34.2674 48.5953 35.5162 47.7665 37.0749C46.9334 38.6427 46.5125 40.453 46.5125 42.4609C46.5125 44.4284 46.9334 46.2208 47.7665 47.7885C48.5953 49.3517 49.7409 50.5961 51.1685 51.4945C52.5875 52.3884 54.2017 52.8421 55.9634 52.8421C57.7642 52.8421 59.3871 52.3929 60.7843 51.499ZM92.2309 38.6382C95.1946 39.2536 97.5812 40.0532 99.3299 41.0145C101.139 42.0072 102.467 43.2021 103.27 44.5677C104.09 45.9333 104.502 47.5235 104.502 49.2889C104.502 51.3058 103.977 53.1566 102.94 54.7827C101.912 56.4043 100.389 57.707 98.4144 58.6593C96.4747 59.5937 94.0404 60.0699 91.1852 60.0699C90.2696 60.0699 89.3844 59.998 88.5122 59.8992L81.6778 59.0187C79.9248 59.0187 78.5015 58.4258 78.5015 56.611V56.2022C78.5015 54.3874 79.9248 52.0335 81.6778 52.0335L90.9508 52.914V52.8556C93.0163 52.8556 94.5871 52.5142 95.6199 51.8449C96.5441 51.2429 97.0084 50.5152 97.0388 49.6168C97.0692 48.7139 96.6396 47.9323 95.7327 47.227C94.7086 46.4319 92.7343 45.7536 89.8704 45.2191C85.7654 44.3746 82.8581 43.1213 80.9662 41.3918C79.0222 39.6175 78.0372 37.4029 78.0372 34.8154C78.0372 32.5514 78.6968 30.6378 79.9942 29.1285C81.2483 27.673 82.8711 26.577 84.8151 25.8672C86.7157 25.171 88.7205 24.8206 90.7816 24.8206C90.8104 24.8206 90.838 24.8217 90.8651 24.8229C90.8911 24.824 90.9166 24.8251 90.9422 24.8251C90.9634 24.8221 90.9846 24.8191 91.0058 24.816C91.1149 24.8004 91.2244 24.7846 91.337 24.7846L99.638 25.6651C101.391 25.6651 102.814 27.1385 102.814 28.9533V29.5822C102.814 31.397 101.391 32.8704 99.638 32.8704L91.5149 31.9899V31.9944C91.2372 31.9809 90.9595 31.9675 90.6688 31.9675C89.111 31.9675 87.7875 32.2415 86.7374 32.7805C85.5832 33.369 85.4487 34.1192 85.4487 34.6313C85.4487 35.1838 85.5788 35.6644 85.8566 36.1002C86.0431 36.3966 86.4987 36.8458 87.6356 37.331C88.6597 37.7712 90.2088 38.2069 92.2309 38.6382Z" fill="#262832"></path><path d="M169.206 77.2974L170.057 74.8386H174.444L175.294 77.2968C175.5 77.8929 176.061 78.2929 176.692 78.2929C177.716 78.2929 178.43 77.2768 178.083 76.313L174.243 65.6417C173.941 64.8011 173.143 64.2406 172.25 64.2406C171.356 64.2406 170.559 64.8011 170.257 65.6417L166.416 76.3128C166.07 77.2767 166.784 78.2929 167.808 78.2929C168.439 78.2929 169 77.8932 169.206 77.2974ZM172.253 68.494L173.527 72.1816H170.977L172.253 68.494ZM182.439 76.8082V65.7253C182.439 64.9053 181.774 64.2406 180.954 64.2406C180.134 64.2406 179.469 64.9053 179.469 65.7253V76.8082C179.469 77.6282 180.134 78.2929 180.954 78.2929C181.774 78.2929 182.439 77.6282 182.439 76.8082Z" fill="black" stroke="black"></path></svg>