<svg width="1920" height="1080" viewBox="0 0 1920 1080" fill="none" xmlns="http://www.w3.org/2000/svg">
<g clip-path="url(#clip0_178_718)">
<path d="M1940.83 -18.02H-17.5698V1096.71H1940.83V-18.02Z" fill="black"/>
<path d="M717.304 158.366V177.729H763.914V260.563H784.783V177.729H831.362V158.366H717.304Z" fill="white"/>
<path d="M1003.63 158.366V197.988H930.16V158.366H909.323V260.563H930.16V217.351H1003.63V260.563H1024.47V158.366H1003.63Z" fill="white"/>
<path d="M1119.97 241.201V217.351H1177.09V197.988H1119.97V177.729H1205.91V158.366H1099.13V260.563H1205.91V241.201H1119.97Z" fill="white"/>
<path d="M432.062 459.315C422.766 449.314 411.963 442.005 399.653 437.389C387.343 432.772 373.014 430.464 356.729 430.464C344.323 430.464 333.039 432.131 322.845 435.497C312.651 438.831 303.931 443.511 296.686 449.474C289.41 455.437 283.8 462.521 279.792 470.728C275.785 478.902 273.798 487.814 273.798 497.463C273.798 507.112 275.753 516.569 279.664 524.839C283.575 533.11 289.217 540.195 296.526 546.093C303.835 551.992 312.747 556.576 323.197 559.845C333.616 563.115 345.381 564.75 358.428 564.75C374.392 564.75 388.337 562.474 400.262 557.89C412.155 553.338 422.83 545.901 432.319 535.643L457.515 549.587C444.628 564.558 430.139 575.265 413.982 581.708C397.825 588.152 378.752 591.389 356.729 591.389C341.245 591.389 326.788 589.306 313.452 585.138C300.084 580.971 288.512 575.233 278.735 567.892C255.077 550.132 243.28 526.635 243.28 497.431C243.28 468.227 255.269 445.595 279.248 427.483C289.025 419.982 300.565 414.147 313.869 409.98C327.14 405.813 341.47 403.729 356.793 403.729C378.656 403.729 398.178 407.608 415.361 415.366C432.575 423.123 447.033 434.568 458.766 449.73L432.094 459.283L432.062 459.315Z" fill="white"/>
<path d="M1237.42 415.525C1249.8 419.853 1260.35 425.912 1268.97 433.766C1277.59 441.588 1284.26 451.076 1288.91 462.264C1293.56 473.42 1295.86 485.858 1295.86 499.578C1295.86 512.145 1293.46 523.717 1288.65 534.296C1283.84 544.907 1276.69 554.331 1267.24 562.666C1258.58 570.328 1248.64 576.162 1237.39 580.169C1226.14 584.176 1214.09 586.164 1201.2 586.164H1083.55V409.082H1195.59C1211.07 409.082 1225.02 411.262 1237.42 415.558V415.525ZM1228.03 554.94C1235.44 551.927 1241.82 547.728 1247.11 542.342C1252.4 536.957 1256.56 530.545 1259.58 523.14C1262.59 515.703 1264.1 507.593 1264.1 498.809C1264.1 489.352 1262.49 480.761 1259.32 473.003C1256.15 465.246 1251.66 458.61 1245.86 453.064C1240.09 447.518 1233.13 443.255 1225.05 440.209C1216.97 437.196 1207.96 435.689 1198.03 435.689H1112.92V559.46H1203.67C1212.48 559.46 1220.59 557.954 1228 554.94H1228.03Z" fill="white"/>
<path d="M1494.58 586.132V409.05H1673.14V435.721H1523.95V480.986H1627.65V507.657H1523.95V559.493H1680V586.164H1494.58V586.132Z" fill="white"/>
<path d="M888.07 497.591C888.07 526.603 876.177 550.1 852.359 568.052C842.582 575.393 831.041 581.131 817.738 585.299C804.434 589.466 790.073 591.55 774.557 591.55C759.042 591.55 744.584 589.434 731.152 585.202C717.688 580.971 706.084 575.169 696.307 567.828C672.488 549.908 660.595 526.506 660.595 497.623C660.595 468.74 672.649 445.916 696.787 427.675C706.725 420.174 718.362 414.308 731.633 410.076C744.905 405.845 759.234 403.729 774.557 403.729C789.88 403.729 803.985 405.845 817.353 410.076C830.721 414.308 842.293 420.206 852.07 427.675C876.049 445.948 888.038 469.253 888.038 497.623L888.07 497.591ZM857.52 497.591C857.52 476.979 848.704 460.117 831.105 447.038C823.924 441.812 815.526 437.709 805.909 434.76C796.292 431.811 785.841 430.336 774.589 430.336C762.183 430.336 750.899 432.003 740.705 435.369C730.511 438.703 721.76 443.383 714.419 449.346C707.078 455.308 701.371 462.457 697.3 470.696C693.229 478.966 691.178 487.942 691.178 497.591C691.178 507.24 693.133 516.697 697.044 524.968C700.955 533.238 706.533 540.323 713.81 546.221C721.054 552.12 729.838 556.704 740.096 559.974C750.354 563.244 761.863 564.878 774.589 564.878C787.316 564.878 798.76 563.244 808.954 559.974C819.148 556.704 827.836 552.12 835.016 546.221C842.197 540.323 847.743 533.238 851.654 524.968C855.565 516.697 857.52 507.593 857.52 497.591Z" fill="#F37021"/>
<path d="M774.333 661.106C784.212 661.106 792.22 654.49 792.22 646.328C792.22 638.166 784.212 631.55 774.333 631.55C764.453 631.55 756.445 638.166 756.445 646.328C756.445 654.49 764.453 661.106 774.333 661.106Z" fill="#F37021"/>
<path d="M502.363 897.499C503.613 896.602 504.607 895.576 505.28 894.486C506.178 893.011 506.659 891.216 506.659 889.197C506.659 887.434 506.338 885.799 505.697 884.356C505.056 882.914 504.126 881.631 502.94 880.605C501.754 879.58 500.279 878.778 498.548 878.233C496.849 877.688 494.894 877.432 492.746 877.432H459.503V919.202H492.297C497.522 919.202 501.497 918.272 504.158 916.381C506.915 914.458 508.293 911.572 508.293 907.854C508.293 902.885 506.306 899.423 502.363 897.532V897.499ZM498.228 910.354C497.009 911.124 495.054 911.508 492.361 911.508H467.774V901.859H493.419C495.695 901.859 497.362 902.276 498.42 903.109C499.414 903.911 499.894 905.129 499.894 906.892C499.894 908.527 499.35 909.681 498.26 910.386L498.228 910.354ZM496.977 892.819C495.887 893.749 494.541 894.198 492.842 894.198H467.742V885.029H493.13C494.862 885.029 496.208 885.446 497.138 886.28C498.067 887.081 498.516 888.171 498.516 889.549C498.516 890.832 498.003 891.889 496.977 892.787V892.819Z" fill="white"/>
<path d="M548.557 901.346H572.087V893.717H548.557V885.062H582.377V877.4H540.287V919.17H583.948V911.508H548.557V901.346Z" fill="white"/>
<path d="M637.419 895.769L620.717 877.4H610.267L633.252 902.821V919.17H641.522V902.821L664.475 877.4H654.057L637.419 895.769Z" fill="white"/>
<path d="M728.075 881.728C725.799 879.965 723.074 878.586 719.965 877.593C713.746 875.605 706.148 875.637 700.026 877.593C696.948 878.586 694.191 879.965 691.883 881.696C686.209 885.992 683.356 891.537 683.356 898.205C683.356 904.873 686.177 910.547 691.787 914.779C694.063 916.478 696.82 917.856 699.929 918.85C703.039 919.843 706.437 920.324 710.027 920.324C713.618 920.324 716.984 919.843 720.061 918.882C723.138 917.92 725.863 916.574 728.139 914.843C733.717 910.643 736.57 905.033 736.57 898.237C736.57 891.441 733.717 886.024 728.107 881.728H728.075ZM710.027 883.78C712.496 883.78 714.804 884.1 716.887 884.741C718.971 885.383 720.798 886.28 722.369 887.402C726.184 890.223 728.043 893.781 728.043 898.237C728.043 900.385 727.626 902.341 726.793 904.104C725.959 905.867 724.773 907.373 723.235 908.656C721.696 909.938 719.804 910.932 717.593 911.637C715.381 912.342 712.816 912.727 710.059 912.727C707.302 912.727 704.706 912.374 702.494 911.637C700.282 910.932 698.359 909.938 696.788 908.656C695.249 907.405 694.031 905.867 693.197 904.104C692.364 902.341 691.947 900.385 691.947 898.237C691.947 896.089 692.396 894.262 693.261 892.499C694.127 890.736 695.377 889.197 696.916 887.915C698.487 886.633 700.41 885.607 702.622 884.87C704.834 884.132 707.334 883.78 710.059 883.78H710.027Z" fill="white"/>
<path d="M803.44 909.104L773.948 877.4H764.523V919.17H772.761V887.434L802.125 918.913L802.35 919.17H811.71V877.4H803.44V909.104Z" fill="white"/>
<path d="M887.108 883.202C885.089 881.375 882.588 879.932 879.671 878.907C876.786 877.913 873.516 877.4 869.926 877.4H843.735V919.17H871.208C874.221 919.17 877.074 918.689 879.671 917.759C882.3 916.83 884.672 915.451 886.692 913.624C888.903 911.669 890.602 909.425 891.757 906.924C892.879 904.424 893.455 901.667 893.455 898.718C893.455 895.512 892.91 892.563 891.821 889.966C890.731 887.337 889.128 885.061 887.108 883.234V883.202ZM871.753 911.508H851.974V885.029H870.471C872.619 885.029 874.574 885.35 876.305 885.991C878.036 886.632 879.511 887.562 880.761 888.716C881.979 889.902 882.941 891.313 883.614 892.948C884.287 894.582 884.64 896.474 884.64 898.493C884.64 900.385 884.319 902.148 883.678 903.719C883.037 905.289 882.139 906.668 881.017 907.822C879.895 908.944 878.549 909.873 876.946 910.483C875.375 911.124 873.612 911.444 871.721 911.444L871.753 911.508Z" fill="white"/>
<path d="M1008.35 897.531C1005.85 895.64 1001.97 894.358 996.807 893.717C994.755 893.46 992.768 893.268 990.941 893.171L985.747 892.851C984.177 892.755 982.702 892.627 981.356 892.466C980.073 892.306 978.887 892.05 977.83 891.633C974.88 890.607 974.88 889.036 974.88 888.491C974.88 887.145 975.778 886.087 977.637 885.254C979.657 884.324 982.734 883.843 986.773 883.843C989.883 883.843 992.928 884.196 995.813 884.933C998.73 885.67 1001.68 886.792 1004.6 888.299L1005.14 888.587L1010.21 882.946L1009.44 882.433C1003.47 878.393 996.006 876.374 987.254 876.374C980.586 876.374 975.393 877.528 971.803 879.772C968.084 882.112 966.225 885.318 966.225 889.389C966.225 891.44 966.642 893.204 967.507 894.582C968.373 895.96 969.655 897.083 971.322 897.916C972.925 898.717 974.976 899.327 977.349 899.743C979.657 900.128 982.446 900.448 985.555 900.673C988.504 900.865 991.133 901.025 993.441 901.186C995.685 901.346 997.609 901.635 999.147 902.019C1000.59 902.404 1001.71 902.917 1002.42 903.59C1003.09 904.199 1003.41 905.097 1003.41 906.315C1003.41 908.174 1002.35 909.649 1000.14 910.803C997.801 912.021 994.243 912.63 989.594 912.63C985.972 912.63 982.542 912.181 979.336 911.284C976.13 910.386 972.893 908.944 969.719 906.988L969.11 906.603L964.526 912.63L965.135 913.111C968.116 915.483 971.675 917.278 975.714 918.4C979.721 919.49 984.369 920.067 989.53 920.067C996.807 920.067 1002.45 918.849 1006.3 916.445C1010.24 913.976 1012.26 910.418 1012.26 905.898C1012.26 902.276 1010.94 899.455 1008.35 897.499V897.531Z" fill="white"/>
<path d="M1034.19 885.062H1053.39V919.17H1061.63V885.062H1080.83V877.4H1034.19V885.062Z" fill="white"/>
<path d="M1147.79 881.728C1145.52 879.965 1142.79 878.586 1139.68 877.593C1133.46 875.605 1125.87 875.637 1119.74 877.593C1116.67 878.586 1113.91 879.965 1111.6 881.696C1105.93 885.992 1103.07 891.537 1103.07 898.205C1103.07 904.873 1105.9 910.547 1111.51 914.779C1113.78 916.478 1116.54 917.856 1119.65 918.85C1122.76 919.843 1126.16 920.324 1129.75 920.324C1133.34 920.324 1136.7 919.843 1139.78 918.882C1142.86 917.92 1145.58 916.574 1147.86 914.843C1153.44 910.643 1156.29 905.033 1156.29 898.237C1156.29 891.441 1153.44 886.024 1147.83 881.728H1147.79ZM1129.71 883.78C1132.18 883.78 1134.49 884.1 1136.57 884.741C1138.66 885.383 1140.48 886.28 1142.06 887.402C1145.87 890.223 1147.73 893.781 1147.73 898.237C1147.73 900.385 1147.31 902.341 1146.48 904.104C1145.65 905.867 1144.46 907.373 1142.92 908.656C1141.38 909.938 1139.49 910.932 1137.28 911.637C1135.07 912.342 1132.5 912.727 1129.75 912.727C1126.99 912.727 1124.39 912.374 1122.18 911.637C1119.97 910.932 1118.04 909.938 1116.47 908.656C1114.94 907.405 1113.72 905.867 1112.88 904.104C1112.05 902.341 1111.63 900.385 1111.63 898.237C1111.63 896.089 1112.08 894.262 1112.95 892.499C1113.81 890.736 1115.06 889.197 1116.6 887.915C1118.17 886.633 1120.1 885.607 1122.31 884.87C1124.52 884.132 1127.02 883.78 1129.75 883.78H1129.71Z" fill="white"/>
<path d="M1228.22 902.18C1229.57 901.539 1230.79 900.705 1231.78 899.647C1232.81 898.589 1233.58 897.307 1234.16 895.865C1234.7 894.422 1234.99 892.723 1234.99 890.864C1234.99 886.728 1233.71 883.426 1231.17 881.022C1228.64 878.618 1225.12 877.432 1220.66 877.432H1188.19V919.202H1196.46V903.879H1215.53L1226.4 919.202H1236.05L1225.12 903.302C1226.21 903.045 1227.26 902.661 1228.26 902.212L1228.22 902.18ZM1196.42 885.061H1219.02C1225.76 885.061 1226.56 888.363 1226.56 890.864C1226.56 892.627 1226.01 893.909 1224.89 894.807C1223.74 895.736 1221.97 896.217 1219.67 896.217H1196.46V885.061H1196.42Z" fill="white"/>
<path d="M1290.38 877.4H1281.05L1258.97 919.17H1268.04L1272.69 910.194H1298.72L1303.37 919.17H1312.44L1290.58 877.849L1290.35 877.432L1290.38 877.4ZM1294.65 902.532H1276.82L1285.77 885.639L1294.65 902.532Z" fill="white"/>
<path d="M1359.59 903.847H1377.87C1376.62 906.507 1374.76 908.623 1372.32 910.098C1369.53 911.797 1365.97 912.662 1361.77 912.662C1359.02 912.662 1356.52 912.31 1354.27 911.573C1352.06 910.867 1350.17 909.841 1348.6 908.559C1347.06 907.277 1345.84 905.738 1345.01 903.975C1344.17 902.212 1343.76 900.257 1343.76 898.173C1343.76 893.717 1345.62 890.191 1349.43 887.338C1350.97 886.216 1352.83 885.318 1354.94 884.677C1357.06 884.036 1359.37 883.715 1361.77 883.715C1365.11 883.715 1368.09 884.26 1370.59 885.382C1373.09 886.472 1375.33 888.107 1377.29 890.191L1377.71 890.639L1385.37 886.793L1384.69 886.023C1381.71 882.593 1378.35 880.061 1374.72 878.458C1371.1 876.887 1366.93 876.086 1362.35 876.086C1358.63 876.086 1355.17 876.567 1352.03 877.496C1348.89 878.458 1346.1 879.836 1343.72 881.664C1338.11 885.895 1335.26 891.473 1335.26 898.173C1335.26 904.873 1338.08 910.515 1343.63 914.746C1345.9 916.445 1348.63 917.823 1351.74 918.817C1354.85 919.811 1358.21 920.292 1361.8 920.292C1365.75 920.292 1369.4 919.747 1372.64 918.657C1375.88 917.567 1378.7 916.028 1380.97 914.041C1383.28 912.053 1385.08 909.617 1386.33 906.828C1387.58 904.039 1388.22 900.93 1388.22 897.564V896.153H1359.59V903.815V903.847Z" fill="white"/>
<path d="M1428.35 911.508V901.346H1451.88V893.717H1428.35V885.062H1462.17V877.4H1420.08V919.17H1463.75V911.508H1428.35Z" fill="white"/>
</g>
<defs>
<clipPath id="clip0_178_718">
<rect width="1920" height="1080" fill="white"/>
</clipPath>
</defs>
</svg>
